<?xml version="1.0" encoding="UTF-8" standalone="no"?>
<!-- Created with Inkscape (http://www.inkscape.org/) -->

<svg
   version="1.1"
   id="svg3097"
   width="256"
   height="880"
   viewBox="0 0 256 880"
   sodipodi:docname="IC_Level_Colission.svg"
   inkscape:version="1.1.2 (b8e25be833, 2022-02-05)"
   xmlns:inkscape="http://www.inkscape.org/namespaces/inkscape"
   xmlns:sodipodi="http://sodipodi.sourceforge.net/DTD/sodipodi-0.dtd"
   xmlns="http://www.w3.org/2000/svg"
   xmlns:svg="http://www.w3.org/2000/svg">
  <defs
     id="defs3101" />
  <sodipodi:namedview
     id="namedview3099"
     pagecolor="#505050"
     bordercolor="#eeeeee"
     borderopacity="1"
     inkscape:pageshadow="0"
     inkscape:pageopacity="0"
     inkscape:pagecheckerboard="0"
     showgrid="false"
     inkscape:zoom="0.9314772"
     inkscape:cx="205.58743"
     inkscape:cy="481.49327"
     inkscape:window-width="1920"
     inkscape:window-height="1051"
     inkscape:window-x="-9"
     inkscape:window-y="-9"
     inkscape:window-maximized="1"
     inkscape:current-layer="g3103" />
  <g
     inkscape:groupmode="layer"
     inkscape:label="Image"
     id="g3103">
    <path
       style="fill:#000000"
       d="m 0,855 h 256 v 25 H 0 Z"
       id="path4175" />
    <path
       style="fill:#000000"
       d="m 112,152 h 32 v 8 h -32 z"
       id="path306" />
    <path
       style="fill:#000000"
       d="m 96,176 h 24 v 8 H 96 Z"
       id="path304" />
    <path
       style="fill:#000000"
       d="m 152,192 h 24 v 8 h -24 z"
       id="path302" />
    <path
       style="fill:#000000"
       d="m 64,216 h 24 v 8 H 64 Z"
       id="path300" />
    <path
       style="fill:#000000"
       d="m 128,224 h 32 v 8 h -32 z"
       id="path298" />
    <path
       style="fill:#000000"
       d="m 96,304 h 48 v 8 H 96 Z"
       id="path296" />
    <path
       style="fill:#000000"
       d="m 168,312 h 24 v 8 h -24 z"
       id="path294" />
    <path
       style="fill:#000000"
       d="m 144,352 h 32 v 8 h -32 z"
       id="path292" />
    <path
       style="fill:#000000"
       d="m 224,368 h -8 v -56 h -8 v -56 h -8 v -56 h -8 v -56 h -8 v -24 h -24 v -8 h 48 v 32 h 8 v 56 h 8 v 56 h 8 v 56 h 8 v 56 h 8 v 56 h -24 z"
       id="path290" />
    <path
       style="fill:#000000"
       d="m 8,368 h 8 v -56 h 8 v -56 h 8 v -56 h 8 v -56 h 8 v -32 h 56 v 8 H 72 v 24 h -8 v 56 h -8 v 56 h -8 v 56 h -8 v 32 h 56 v 8 H 40 v 16 h -8 v 56 H 8 Z"
       id="path288" />
    <path
       style="fill:#000000"
       d="m 176,440 h 32 v 8 h -32 z"
       id="path286" />
    <path
       style="fill:#000000"
       d="m 104,440 h 48 v 8 h -48 z"
       id="path284" />
    <path
       style="fill:#000000"
       d="m 48,440 h 32 v 8 H 48 Z"
       id="path282" />
    <path
       style="fill:#000000"
       d="m 200,472 h 56 v 8 h -56 z"
       id="path280" />
    <path
       style="fill:#000000"
       d="m 136,472 h 48 v 8 h -48 z"
       id="path278" />
    <path
       style="fill:#000000"
       d="m 72,472 h 48 v 8 H 72 Z"
       id="path276" />
    <path
       style="fill:#000000"
       d="m 0,472 h 56 v 8 H 0 Z"
       id="path274" />
    <path
       style="fill:#000000"
       d="m 208,520 h 48 v 8 h -48 z"
       id="path272" />
    <path
       style="fill:#000000"
       d="m 0,520 h 48 v 8 H 0 Z"
       id="path270" />
    <path
       style="fill:#000000"
       d="m 208,568 h 48 v 8 h -48 z"
       id="path268" />
    <path
       style="fill:#000000"
       d="m 0,568 h 48 v 8 H 0 Z"
       id="path266" />
    <path
       style="fill:#000000"
       d="m 208,616 h 48 v 8 h -48 z"
       id="path264" />
    <path
       style="fill:#000000"
       d="m 0,616 h 48 v 8 H 0 Z"
       id="path262" />
    <path
       style="fill:#000000"
       d="m 216,664 h 40 v 8 h -40 z"
       id="path260" />
    <path
       style="fill:#000000"
       d="m 0,664 h 40 v 8 H 0 Z"
       id="path258" />
    <path
       style="fill:#000000"
       d="m 216,712 h 40 v 8 h -40 z"
       id="path256" />
    <path
       style="fill:#000000"
       d="m 0,712 h 40 v 8 H 0 Z"
       id="path254" />
    <path
       style="fill:#000000"
       d="m 216,760 h 40 v 8 h -40 z"
       id="path252" />
    <path
       style="fill:#000000"
       d="m 0,760 h 40 v 8 H 0 Z"
       id="path250" />
    <path
       style="fill:#000000"
       d="m 224,808 h 32 v 8 h -32 z"
       id="path248" />
    <path
       style="fill:#000000"
       d="m 0,808 h 32 v 8 H 0 Z"
       id="path246" />
  </g>
</svg>
