<?xml version="1.0" encoding="UTF-8" standalone="no"?>
<!-- Created with Inkscape (http://www.inkscape.org/) -->

<svg
   version="1.1"
   id="svg9"
   width="456"
   height="880"
   viewBox="0 0 456 880"
   sodipodi:docname="Background_BlackAndWhite_LongVersion.svg"
   inkscape:version="1.1.2 (b8e25be833, 2022-02-05)"
   xmlns:inkscape="http://www.inkscape.org/namespaces/inkscape"
   xmlns:sodipodi="http://sodipodi.sourceforge.net/DTD/sodipodi-0.dtd"
   xmlns:xlink="http://www.w3.org/1999/xlink"
   xmlns="http://www.w3.org/2000/svg"
   xmlns:svg="http://www.w3.org/2000/svg">
  <defs
     id="defs13" />
  <sodipodi:namedview
     id="namedview11"
     pagecolor="#505050"
     bordercolor="#eeeeee"
     borderopacity="1"
     inkscape:pageshadow="0"
     inkscape:pageopacity="0"
     inkscape:pagecheckerboard="0"
     showgrid="false"
     inkscape:lockguides="false"
     inkscape:zoom="2.9045061"
     inkscape:cx="268.37609"
     inkscape:cy="208.98562"
     inkscape:window-width="2560"
     inkscape:window-height="1417"
     inkscape:window-x="-8"
     inkscape:window-y="-8"
     inkscape:window-maximized="1"
     inkscape:current-layer="g15" />
  <g
     inkscape:groupmode="layer"
     inkscape:label="Image"
     id="g15">
    <image
       width="456"
       height="880"
       preserveAspectRatio="none"
       xlink:href="Background_BlackAndWhite_LongVersion.png"
       id="image17" />
    <path
       style="fill:#000000"
       d="m 212,152 h 32 c 0,2.66667 0,5.33333 0,8 h -32 c 0,-2.66667 0,-5.33333 0,-8 z"
       id="path4248" />
    <path
       style="fill:#000000"
       d="m 196,176 h 24 c 0,2.66667 0,5.33333 0,8 h -24 c 0,-2.66667 0,-5.33333 0,-8 z"
       id="path4246" />
    <path
       style="fill:#000000"
       d="m 252,192 h 24 c 0,2.66667 0,5.33333 0,8 h -24 c 0,-2.66667 0,-5.33333 0,-8 z"
       id="path4244" />
    <path
       style="fill:#000000"
       d="m 164,216 h 24 c 0,2.66667 0,5.33333 0,8 h -24 c 0,-2.66667 0,-5.33333 0,-8 z"
       id="path4242" />
    <path
       style="fill:#000000"
       d="m 228,224 h 32 c 0,2.66667 0,5.33333 0,8 h -32 c 0,-2.66667 0,-5.33333 0,-8 z"
       id="path4240" />
    <path
       style="fill:#000000"
       d="m 196,304 h 48 c 0,2.66667 0,5.33333 0,8 h -48 c 0,-2.66667 0,-5.33333 0,-8 z"
       id="path4238" />
    <path
       style="fill:#000000"
       d="m 268,312 h 24 c 0,2.66667 0,5.33333 0,8 h -24 c 0,-2.66667 0,-5.33333 0,-8 z"
       id="path4236" />
    <path
       style="fill:#000000"
       d="m 244,352 h 32 c 0,2.66667 0,5.33333 0,8 h -32 c 0,-2.66667 0,-5.33333 0,-8 z"
       id="path4234" />
    <path
       style="fill:#000000"
       d="m 324,368 c -2.66667,0 -5.33333,0 -8,0 v -56 c -2.66667,0 -5.33333,0 -8,0 v -56 c -2.66667,0 -5.33333,0 -8,0 v -56 c -2.66667,0 -5.33333,0 -8,0 v -56 c -2.66667,0 -5.33333,0 -8,0 v -24 h -24 c 0,-2.66667 0,-5.33333 0,-8 h 48 v 32 c 2.66667,0 5.33333,0 8,0 v 56 c 2.66667,0 5.33333,0 8,0 v 56 c 2.66667,0 5.33333,0 8,0 v 56 h 4 4 v 56 c 2.66667,0 5.33333,0 8,0 v 56 h -24 z"
       id="path4232" />
    <path
       style="fill:#000000"
       d="m 108,368 c 2.66667,0 5.33333,0 8,0 v -56 c 2.66667,0 5.33333,0 8,0 v -56 c 2.66667,0 5.33333,0 8,0 v -56 c 2.66667,0 5.33333,0 8,0 v -56 c 2.66667,0 5.33333,0 8,0 v -32 h 56 c 0,2.66667 0,5.33333 0,8 h -32 v 24 c -2.66667,0 -5.33333,0 -8,0 v 56 c -2.66667,0 -5.33333,0 -8,0 v 56 c -2.66667,0 -5.33333,0 -8,0 v 56 c -2.66667,0 -5.33333,0 -8,0 v 32 h 56 c 0,2.66667 0,5.33333 0,8 h -56 c 0,5.33333 0,10.66667 0,16 -2.66667,0 -5.33333,0 -8,0 v 56 h -24 z"
       id="path4230" />
    <path
       style="fill:#000000"
       d="m 276,440 h 32 c 0,2.66667 0,5.33333 0,8 h -32 c 0,-2.66667 0,-5.33333 0,-8 z"
       id="path4228" />
    <path
       style="fill:#000000"
       d="m 204,440 h 48 c 0,2.66667 0,5.33333 0,8 h -48 c 0,-2.66667 0,-5.33333 0,-8 z"
       id="path4226" />
    <path
       style="fill:#000000"
       d="m 148,440 h 32 c 0,2.66667 0,5.33333 0,8 h -32 c 0,-2.66667 0,-5.33333 0,-8 z"
       id="path4224" />
    <path
       style="fill:#000000"
       d="m 300,472 h 156 c 0,2.66667 0,5.33333 0,8 H 300 c 0,-2.66667 0,-5.33333 0,-8 z"
       id="path4222" />
    <path
       style="fill:#000000"
       d="m 236,472 h 48 c 0,2.66667 0,5.33333 0,8 h -48 c 0,-2.66667 0,-5.33333 0,-8 z"
       id="path4220" />
    <path
       style="fill:#000000"
       d="m 172,472 h 48 c 0,2.66667 0,5.33333 0,8 h -48 c 0,-2.66667 0,-5.33333 0,-8 z"
       id="path4218" />
    <path
       style="fill:#000000"
       d="m 0,472 h 156 c 0,2.66667 0,5.33333 0,8 H 0 c 0,-2.66667 0,-5.33333 0,-8 z"
       id="path4216" />
    <path
       style="fill:#000000"
       d="m 308,520 h 148 c 0,2.66667 0,5.33333 0,8 H 308 c 0,-2.66667 0,-5.33333 0,-8 z"
       id="path4214" />
    <path
       style="fill:#000000"
       d="m 0,520 h 148 c 0,2.66667 0,5.33333 0,8 H 0 c 0,-2.66667 0,-5.33333 0,-8 z"
       id="path4212" />
    <path
       style="fill:#000000"
       d="m 308,568 h 148 c 0,2.66667 0,5.33333 0,8 H 308 c 0,-2.66667 0,-5.33333 0,-8 z"
       id="path4210" />
    <path
       style="fill:#000000"
       d="m 0,568 h 148 c 0,2.66667 0,5.33333 0,8 H 0 c 0,-2.66667 0,-5.33333 0,-8 z"
       id="path4208" />
    <path
       style="fill:#000000"
       d="m 308,616 h 148 c 0,2.66667 0,5.33333 0,8 H 308 c 0,-2.66667 0,-5.33333 0,-8 z"
       id="path4206" />
    <path
       style="fill:#000000"
       d="m 0,616 h 148 c 0,2.66667 0,5.33333 0,8 H 0 c 0,-2.66667 0,-5.33333 0,-8 z"
       id="path4204" />
    <path
       style="fill:#000000"
       d="m 316,664 h 140 c 0,2.66667 0,5.33333 0,8 H 316 c 0,-2.66667 0,-5.33333 0,-8 z"
       id="path4202" />
    <path
       style="fill:#000000"
       d="m 0,664 h 140 c 0,2.66667 0,5.33333 0,8 H 0 c 0,-2.66667 0,-5.33333 0,-8 z"
       id="path4200" />
    <path
       style="fill:#000000"
       d="m 316,712 h 140 v 8 H 316 Z"
       id="path4198" />
    <path
       style="fill:#000000"
       d="m 0,712 h 140 v 8 H 0 Z"
       id="path4196" />
    <path
       style="fill:#000000"
       d="m 316,760 h 140 v 8 H 316 Z"
       id="path4194" />
    <path
       style="fill:#000000"
       d="m 0,760 h 140 v 8 H 0 Z"
       id="path4192" />
    <path
       style="fill:#000000"
       d="m 324,808 h 132 v 8 H 324 Z"
       id="path4190" />
    <path
       style="fill:#000000"
       d="m 0,808 h 132 v 8 H 0 Z"
       id="path4188" />
    <path
       style="fill:#000000"
       d="m 0,855 h 456 v 25 H 0 Z"
       id="path156" />
  </g>
</svg>
