<?xml version="1.0" encoding="UTF-8" standalone="no"?>
<!-- Created with Inkscape (http://www.inkscape.org/) -->

<svg
   version="1.1"
   id="svg3097"
   width="256"
   height="880"
   viewBox="0 0 256 880"
   sodipodi:docname="IC_Level_Colission1.svg"
   inkscape:version="1.1.2 (b8e25be833, 2022-02-05)"
   xmlns:inkscape="http://www.inkscape.org/namespaces/inkscape"
   xmlns:sodipodi="http://sodipodi.sourceforge.net/DTD/sodipodi-0.dtd"
   xmlns="http://www.w3.org/2000/svg"
   xmlns:svg="http://www.w3.org/2000/svg">
  <defs
     id="defs3101" />
  <sodipodi:namedview
     id="namedview3099"
     pagecolor="#505050"
     bordercolor="#eeeeee"
     borderopacity="1"
     inkscape:pageshadow="0"
     inkscape:pageopacity="0"
     inkscape:pagecheckerboard="0"
     showgrid="false"
     inkscape:zoom="3.7259088"
     inkscape:cx="217.26243"
     inkscape:cy="213.37076"
     inkscape:window-width="2560"
     inkscape:window-height="1417"
     inkscape:window-x="-8"
     inkscape:window-y="-8"
     inkscape:window-maximized="1"
     inkscape:current-layer="g3103" />
  <g
     inkscape:groupmode="layer"
     inkscape:label="Image"
     id="g3103">
    <path
       style="fill:#000000"
       d="m 112,152 h 32 v 8 h -32 z"
       id="path176" />
    <path
       style="fill:#000000"
       d="m 96,176 h 24 v 8 H 96 Z"
       id="path174" />
    <path
       style="fill:#000000"
       d="m 152,192 h 24 v 8 h -24 z"
       id="path172" />
    <path
       style="fill:#000000"
       d="m 64,216 h 24 v 8 H 64 Z"
       id="path170" />
    <path
       style="fill:#000000"
       d="m 128,224 h 32 v 8 h -32 z"
       id="path168" />
    <path
       style="fill:#000000"
       d="m 96,304 h 48 v 8 H 96 Z"
       id="path166" />
    <path
       style="fill:#000000"
       d="m 168,312 h 24 v 8 h -24 z"
       id="path164" />
    <path
       style="fill:#000000"
       d="m 144,352 h 32 v 8 h -32 z"
       id="path162" />
    <path
       style="fill:#000000"
       d="m 224,368 h -8 v -56 h -8 v -56 h -8 v -56 h -8 v -56 h -8 v -24 h -24 v -8 h 48 v 32 h 8 v 56 h 8 v 56 h 8 v 56 h 8 v 56 h 8 v 56 h -24 z"
       id="path160" />
    <path
       style="fill:#000000"
       d="m 8,368 h 8 v -56 h 8 v -56 h 8 v -56 h 8 v -56 h 8 v -32 h 56 v 8 H 72 v 24 h -8 v 56 h -8 v 56 h -8 v 56 h -8 v 32 h 56 v 8 H 40 v 16 h -8 v 56 H 8 Z"
       id="path158" />
    <path
       style="fill:#000000"
       d="m 176,440 h 32 v 8 h -32 z"
       id="path156" />
    <path
       style="fill:#000000"
       d="m 104,440 h 48 v 8 h -48 z"
       id="path154" />
    <path
       style="fill:#000000"
       d="m 48,440 h 32 v 8 H 48 Z"
       id="path152" />
    <path
       style="fill:#000000"
       d="m 200,472 h 56 v 8 h -56 z"
       id="path150" />
    <path
       style="fill:#000000"
       d="m 136,472 h 48 v 8 h -48 z"
       id="path148" />
    <path
       style="fill:#000000"
       d="m 72,472 h 48 v 8 H 72 Z"
       id="path146" />
    <path
       style="fill:#000000"
       d="m 0,472 h 56 v 8 H 0 Z"
       id="path144" />
    <path
       style="fill:#000000"
       d="m 208,520 h 48 v 8 h -48 z"
       id="path142" />
    <path
       style="fill:#000000"
       d="m 0,520 h 48 v 8 H 0 Z"
       id="path140" />
    <path
       style="fill:#000000"
       d="m 208,568 h 48 v 8 h -48 z"
       id="path138" />
    <path
       style="fill:#000000"
       d="m 0,568 h 48 v 8 H 0 Z"
       id="path136" />
    <path
       style="fill:#000000"
       d="m 208,616 h 48 v 8 h -48 z"
       id="path134" />
    <path
       style="fill:#000000"
       d="m 0,616 h 48 v 8 H 0 Z"
       id="path132" />
    <path
       style="fill:#000000"
       d="m 216,664 h 40 v 8 h -40 z"
       id="path130" />
    <path
       style="fill:#000000"
       d="m 0,664 h 40 v 8 H 0 Z"
       id="path128" />
    <path
       style="fill:#000000"
       d="m 216,712 h 40 v 8 h -40 z"
       id="path126" />
    <path
       style="fill:#000000"
       d="m 0,712 h 40 v 8 H 0 Z"
       id="path124" />
    <path
       style="fill:#000000"
       d="m 216,760 h 40 v 8 h -40 z"
       id="path122" />
    <path
       style="fill:#000000"
       d="m 0,760 h 40 v 8 H 0 Z"
       id="path120" />
    <path
       style="fill:#000000"
       d="m 224,808 h 32 v 8 h -32 z"
       id="path118" />
    <path
       style="fill:#000000"
       d="m 0,808 h 32 v 8 H 0 Z"
       id="path116" />
    <path
       style="fill:#000000"
       d="m 0,855 h 256 v 25 H 0 Z"
       id="path4175" />
  </g>
</svg>
